<svg xmlns="http://www.w3.org/2000/svg" width="121" height="17" viewBox="0 0 121 17">
  <metadata><?xpacket begin="﻿" id="W5M0MpCehiHzreSzNTczkc9d"?>
<x:xmpmeta xmlns:x="adobe:ns:meta/" x:xmptk="Adobe XMP Core 5.6-c138 79.159824, 2016/09/14-01:09:01        ">
   <rdf:RDF xmlns:rdf="http://www.w3.org/1999/02/22-rdf-syntax-ns#">
      <rdf:Description rdf:about=""/>
   </rdf:RDF>
</x:xmpmeta>
                                                                                                    
                                                                                                    
                                                                                                    
                                                                                                    
                                                                                                    
                                                                                                    
                                                                                                    
                                                                                                    
                                                                                                    
                                                                                                    
                                                                                                    
                                                                                                    
                                                                                                    
                                                                                                    
                                                                                                    
                                                                                                    
                                                                                                    
                                                                                                    
                                                                                                    
                                                                                                    
                           
<?xpacket end="w"?></metadata>
<defs>
    <style>
      .cls-1 {
        fill: #c88d55;
        fill-rule: evenodd;
      }
    </style>
  </defs>
  <path id="Shape_2_copy" data-name="Shape 2 copy" class="cls-1" d="M136.308,95.734a5.365,5.365,0,0,0-5.67,5.652,5.515,5.515,0,0,0,5.531,5.882,6.122,6.122,0,0,0,4.137-1.713v-1.923h-2.533v-2.57H143l-0.024,6.641a1.884,1.884,0,0,0-1.033,0,10.4,10.4,0,0,0-1.523.539A7.108,7.108,0,0,1,135.634,110c-4.346,0-8.087-3.358-8.087-8.523A8.309,8.309,0,0,1,136.053,93a9.423,9.423,0,0,1,6.135,2.086L140.7,97.309A7.234,7.234,0,0,0,136.308,95.734Zm-21.057,4.516a27.716,27.716,0,0,1-1.372-2.547h-0.046S114,99.278,114,100.25v9.473h-3V93.279h3l6.251,9.5c0.605,0.972,1.372,2.547,1.372,2.547h0.046s-0.163-1.575-.163-2.547v-9.5h2.975v16.445H121.5ZM104,93.279h3v16.445h-3V93.279ZM90.753,100.25A27.742,27.742,0,0,1,89.382,97.7H89.335s0.163,1.575.163,2.547v9.473h-3V93.279h3l6.252,9.5c0.6,0.972,1.371,2.547,1.371,2.547h0.047S97,103.748,97,102.776v-9.5H99.98v16.445H97ZM79.5,93.279h3v16.445h-3V93.279Zm-7.015,6.972c0-.972.163-2.547,0.163-2.547H72.607l-0.17.278H72.39s-0.534,1.6-.906,2.548L68.811,106.9h-2.6l-2.673-6.369c-0.372-.95-0.906-2.571-0.906-2.571H62.583l-0.092-.093c0.041,0.427.147,1.6,0.147,2.385v9.473h-3V93.279h3.78l3.254,8.13c0.372,0.973.814,2.41,0.814,2.41h0.046s0.441-1.437.813-2.41l3.254-8.13h3.886v16.445h-3V100.25ZM45.22,110a8.074,8.074,0,0,1-5.648-2.246l1.627-2.247a6.591,6.591,0,0,0,4.09,1.737c1.488,0,2.417-.764,2.417-1.876,0-3.127-7.693-2.478-7.693-7.6,0-2.9,2.417-4.772,5.624-4.772a7.275,7.275,0,0,1,4.834,1.761l-1.325,2.432a5.8,5.8,0,0,0-3.626-1.436c-1.511,0-2.51.741-2.51,1.875,0,3.057,7.693,2.269,7.693,7.505C50.705,107.8,48.753,110,45.22,110Zm-8.994-2.3a5.412,5.412,0,0,0-1.35.539A7.108,7.108,0,0,1,30.089,110C25.743,110,22,106.643,22,101.478A8.309,8.309,0,0,1,30.507,93a9.425,9.425,0,0,1,6.136,2.086l-1.487,2.222a7.231,7.231,0,0,0-4.393-1.575,5.365,5.365,0,0,0-5.671,5.652,5.515,5.515,0,0,0,5.531,5.882,6.122,6.122,0,0,0,4.137-1.713v-1.923H32.227v-2.57h5.229L37.6,107.7A3.737,3.737,0,0,0,36.226,107.7Z" transform="translate(-22 -93)"/>
</svg>
